<mxfile host="app.diagrams.net" modified="2022-05-05T13:47:50.850Z" agent="5.0 (Windows NT 10.0; Win64; x64) AppleWebKit/537.36 (KHTML, like Gecko) Chrome/101.0.4951.54 Safari/537.36" etag="MtTpdEywXPLL5-awG8mM" version="17.5.0" type="github">
  <diagram id="MKALn9oxYHhd3itmgT6E" name="Страница 1">
    <mxGraphModel dx="2249" dy="794" grid="1" gridSize="10" guides="1" tooltips="1" connect="1" arrows="1" fold="1" page="1" pageScale="1" pageWidth="827" pageHeight="1169" math="0" shadow="0">
      <root>
        <mxCell id="0" />
        <mxCell id="1" parent="0" />
        <mxCell id="bjQZ_ByGUtDVCCIVddDF-1" value="Сервер&lt;br&gt;Tinkoff" style="ellipse;shape=cloud;whiteSpace=wrap;html=1;" parent="1" vertex="1">
          <mxGeometry x="-15" y="10" width="310" height="150" as="geometry" />
        </mxCell>
        <mxCell id="bjQZ_ByGUtDVCCIVddDF-2" value="Сервис ордеров и котировок" style="swimlane;" parent="1" vertex="1">
          <mxGeometry x="40" y="240" width="200" height="200" as="geometry" />
        </mxCell>
        <mxCell id="bjQZ_ByGUtDVCCIVddDF-4" value="Получение котировок&lt;br&gt;&lt;br&gt;Отправка в&amp;nbsp; KAFKA" style="rounded=0;whiteSpace=wrap;html=1;" parent="bjQZ_ByGUtDVCCIVddDF-2" vertex="1">
          <mxGeometry x="10" y="30" width="90" height="160" as="geometry" />
        </mxCell>
        <mxCell id="bjQZ_ByGUtDVCCIVddDF-5" value="Отправка ордеров&lt;br&gt;&lt;br&gt;Получение ордеров из KAFKA" style="rounded=0;whiteSpace=wrap;html=1;" parent="bjQZ_ByGUtDVCCIVddDF-2" vertex="1">
          <mxGeometry x="110" y="30" width="80" height="160" as="geometry" />
        </mxCell>
        <mxCell id="bjQZ_ByGUtDVCCIVddDF-3" style="edgeStyle=orthogonalEdgeStyle;rounded=0;orthogonalLoop=1;jettySize=auto;html=1;entryX=0.5;entryY=0;entryDx=0;entryDy=0;" parent="1" source="bjQZ_ByGUtDVCCIVddDF-1" target="bjQZ_ByGUtDVCCIVddDF-4" edge="1">
          <mxGeometry relative="1" as="geometry">
            <mxPoint x="110" y="230" as="targetPoint" />
          </mxGeometry>
        </mxCell>
        <mxCell id="bjQZ_ByGUtDVCCIVddDF-9" style="edgeStyle=orthogonalEdgeStyle;rounded=0;orthogonalLoop=1;jettySize=auto;html=1;" parent="1" source="bjQZ_ByGUtDVCCIVddDF-5" edge="1">
          <mxGeometry relative="1" as="geometry">
            <mxPoint x="190" y="170" as="targetPoint" />
          </mxGeometry>
        </mxCell>
        <mxCell id="bjQZ_ByGUtDVCCIVddDF-14" style="edgeStyle=orthogonalEdgeStyle;rounded=0;orthogonalLoop=1;jettySize=auto;html=1;entryX=1;entryY=0.75;entryDx=0;entryDy=0;" parent="1" source="bjQZ_ByGUtDVCCIVddDF-12" target="bjQZ_ByGUtDVCCIVddDF-5" edge="1">
          <mxGeometry relative="1" as="geometry">
            <mxPoint x="235" y="390" as="targetPoint" />
          </mxGeometry>
        </mxCell>
        <mxCell id="bjQZ_ByGUtDVCCIVddDF-12" value="KAFKA SERVICE" style="shape=cube;whiteSpace=wrap;html=1;boundedLbl=1;backgroundOutline=1;darkOpacity=0.05;darkOpacity2=0.1;" parent="1" vertex="1">
          <mxGeometry x="340" y="290" width="180" height="80" as="geometry" />
        </mxCell>
        <mxCell id="bjQZ_ByGUtDVCCIVddDF-13" style="edgeStyle=orthogonalEdgeStyle;rounded=0;orthogonalLoop=1;jettySize=auto;html=1;" parent="1" edge="1">
          <mxGeometry relative="1" as="geometry">
            <mxPoint x="337" y="310" as="targetPoint" />
            <Array as="points">
              <mxPoint x="95" y="470" />
              <mxPoint x="270" y="470" />
              <mxPoint x="270" y="310" />
              <mxPoint x="337" y="310" />
            </Array>
            <mxPoint x="95" y="430" as="sourcePoint" />
          </mxGeometry>
        </mxCell>
        <mxCell id="bjQZ_ByGUtDVCCIVddDF-17" value="" style="shape=cylinder3;whiteSpace=wrap;html=1;boundedLbl=1;backgroundOutline=1;size=15;" parent="1" vertex="1">
          <mxGeometry x="90" y="520" width="200" height="190" as="geometry" />
        </mxCell>
        <mxCell id="bjQZ_ByGUtDVCCIVddDF-22" value="Spring Security" style="shape=cylinder3;whiteSpace=wrap;html=1;boundedLbl=1;backgroundOutline=1;size=15;" parent="1" vertex="1">
          <mxGeometry x="90" y="640" width="200" height="60" as="geometry" />
        </mxCell>
        <mxCell id="bjQZ_ByGUtDVCCIVddDF-35" style="edgeStyle=orthogonalEdgeStyle;rounded=0;orthogonalLoop=1;jettySize=auto;html=1;entryX=0;entryY=0.25;entryDx=0;entryDy=0;" parent="1" source="bjQZ_ByGUtDVCCIVddDF-18" target="bjQZ_ByGUtDVCCIVddDF-33" edge="1">
          <mxGeometry relative="1" as="geometry">
            <Array as="points">
              <mxPoint x="350" y="560" />
              <mxPoint x="350" y="468" />
            </Array>
          </mxGeometry>
        </mxCell>
        <mxCell id="bjQZ_ByGUtDVCCIVddDF-36" value="Если прила&lt;br&gt;рухнула" style="edgeLabel;html=1;align=center;verticalAlign=middle;resizable=0;points=[];" parent="bjQZ_ByGUtDVCCIVddDF-35" vertex="1" connectable="0">
          <mxGeometry x="-0.1529" relative="1" as="geometry">
            <mxPoint as="offset" />
          </mxGeometry>
        </mxCell>
        <mxCell id="bjQZ_ByGUtDVCCIVddDF-24" value="Сервис аналитики" style="swimlane;" parent="1" vertex="1">
          <mxGeometry x="400" y="420" width="250" height="280" as="geometry" />
        </mxCell>
        <mxCell id="bjQZ_ByGUtDVCCIVddDF-44" value="RAM Storage" style="shape=cylinder3;whiteSpace=wrap;html=1;boundedLbl=1;backgroundOutline=1;size=15;" parent="bjQZ_ByGUtDVCCIVddDF-24" vertex="1">
          <mxGeometry x="10" y="220" width="230" height="50" as="geometry" />
        </mxCell>
        <mxCell id="bjQZ_ByGUtDVCCIVddDF-43" style="edgeStyle=orthogonalEdgeStyle;rounded=0;orthogonalLoop=1;jettySize=auto;html=1;entryX=0.917;entryY=-0.015;entryDx=0;entryDy=0;entryPerimeter=0;" parent="bjQZ_ByGUtDVCCIVddDF-24" source="bjQZ_ByGUtDVCCIVddDF-31" target="bjQZ_ByGUtDVCCIVddDF-42" edge="1">
          <mxGeometry relative="1" as="geometry">
            <Array as="points">
              <mxPoint x="221" y="120" />
              <mxPoint x="221" y="120" />
            </Array>
          </mxGeometry>
        </mxCell>
        <mxCell id="bjQZ_ByGUtDVCCIVddDF-31" value="Управление сервисом" style="rounded=0;whiteSpace=wrap;html=1;" parent="bjQZ_ByGUtDVCCIVddDF-24" vertex="1">
          <mxGeometry x="170" y="30" width="70" height="70" as="geometry" />
        </mxCell>
        <mxCell id="bjQZ_ByGUtDVCCIVddDF-39" style="edgeStyle=orthogonalEdgeStyle;rounded=0;orthogonalLoop=1;jettySize=auto;html=1;exitX=0.25;exitY=1;exitDx=0;exitDy=0;entryX=0.209;entryY=0.015;entryDx=0;entryDy=0;entryPerimeter=0;" parent="bjQZ_ByGUtDVCCIVddDF-24" source="bjQZ_ByGUtDVCCIVddDF-33" target="bjQZ_ByGUtDVCCIVddDF-32" edge="1">
          <mxGeometry relative="1" as="geometry" />
        </mxCell>
        <mxCell id="bjQZ_ByGUtDVCCIVddDF-33" value="Модуль работы с котировками и отправка ордеров" style="rounded=0;whiteSpace=wrap;html=1;" parent="bjQZ_ByGUtDVCCIVddDF-24" vertex="1">
          <mxGeometry x="10" y="30" width="150" height="70" as="geometry" />
        </mxCell>
        <mxCell id="bjQZ_ByGUtDVCCIVddDF-47" style="edgeStyle=orthogonalEdgeStyle;rounded=0;orthogonalLoop=1;jettySize=auto;html=1;exitX=0.5;exitY=0;exitDx=0;exitDy=0;entryX=0.602;entryY=0.978;entryDx=0;entryDy=0;entryPerimeter=0;" parent="bjQZ_ByGUtDVCCIVddDF-24" source="bjQZ_ByGUtDVCCIVddDF-42" target="bjQZ_ByGUtDVCCIVddDF-32" edge="1">
          <mxGeometry relative="1" as="geometry" />
        </mxCell>
        <mxCell id="bjQZ_ByGUtDVCCIVddDF-42" value="Индикаторы" style="rounded=0;whiteSpace=wrap;html=1;" parent="bjQZ_ByGUtDVCCIVddDF-24" vertex="1">
          <mxGeometry x="10" y="180" width="230" height="45" as="geometry" />
        </mxCell>
        <mxCell id="bjQZ_ByGUtDVCCIVddDF-46" style="edgeStyle=orthogonalEdgeStyle;rounded=0;orthogonalLoop=1;jettySize=auto;html=1;exitX=0.25;exitY=1;exitDx=0;exitDy=0;entryX=0.209;entryY=0;entryDx=0;entryDy=0;entryPerimeter=0;" parent="bjQZ_ByGUtDVCCIVddDF-24" source="bjQZ_ByGUtDVCCIVddDF-32" target="bjQZ_ByGUtDVCCIVddDF-42" edge="1">
          <mxGeometry relative="1" as="geometry" />
        </mxCell>
        <mxCell id="bjQZ_ByGUtDVCCIVddDF-48" style="edgeStyle=orthogonalEdgeStyle;rounded=0;orthogonalLoop=1;jettySize=auto;html=1;exitX=0.5;exitY=0;exitDx=0;exitDy=0;entryX=0.62;entryY=1.019;entryDx=0;entryDy=0;entryPerimeter=0;" parent="bjQZ_ByGUtDVCCIVddDF-24" source="bjQZ_ByGUtDVCCIVddDF-32" target="bjQZ_ByGUtDVCCIVddDF-33" edge="1">
          <mxGeometry relative="1" as="geometry" />
        </mxCell>
        <mxCell id="bjQZ_ByGUtDVCCIVddDF-32" value="Получение и обработка котировок" style="rounded=0;whiteSpace=wrap;html=1;" parent="bjQZ_ByGUtDVCCIVddDF-24" vertex="1">
          <mxGeometry x="10" y="120" width="190" height="45" as="geometry" />
        </mxCell>
        <mxCell id="bjQZ_ByGUtDVCCIVddDF-34" style="edgeStyle=orthogonalEdgeStyle;rounded=0;orthogonalLoop=1;jettySize=auto;html=1;entryX=1;entryY=0;entryDx=0;entryDy=22.5;entryPerimeter=0;" parent="1" source="bjQZ_ByGUtDVCCIVddDF-33" target="bjQZ_ByGUtDVCCIVddDF-18" edge="1">
          <mxGeometry relative="1" as="geometry">
            <Array as="points">
              <mxPoint x="310" y="460" />
              <mxPoint x="310" y="543" />
            </Array>
          </mxGeometry>
        </mxCell>
        <mxCell id="bjQZ_ByGUtDVCCIVddDF-37" value="Сохранение&lt;br&gt;котировок" style="edgeLabel;html=1;align=center;verticalAlign=middle;resizable=0;points=[];" parent="bjQZ_ByGUtDVCCIVddDF-34" vertex="1" connectable="0">
          <mxGeometry x="0.1984" relative="1" as="geometry">
            <mxPoint as="offset" />
          </mxGeometry>
        </mxCell>
        <mxCell id="bjQZ_ByGUtDVCCIVddDF-38" style="edgeStyle=orthogonalEdgeStyle;rounded=0;orthogonalLoop=1;jettySize=auto;html=1;entryX=1;entryY=0.5;entryDx=0;entryDy=0;entryPerimeter=0;" parent="1" source="bjQZ_ByGUtDVCCIVddDF-33" target="bjQZ_ByGUtDVCCIVddDF-19" edge="1">
          <mxGeometry relative="1" as="geometry">
            <Array as="points">
              <mxPoint x="390" y="485" />
              <mxPoint x="390" y="590" />
            </Array>
          </mxGeometry>
        </mxCell>
        <mxCell id="bjQZ_ByGUtDVCCIVddDF-49" style="edgeStyle=orthogonalEdgeStyle;rounded=0;orthogonalLoop=1;jettySize=auto;html=1;entryX=0.25;entryY=0;entryDx=0;entryDy=0;" parent="1" source="bjQZ_ByGUtDVCCIVddDF-12" target="bjQZ_ByGUtDVCCIVddDF-33" edge="1">
          <mxGeometry relative="1" as="geometry">
            <Array as="points">
              <mxPoint x="448" y="410" />
            </Array>
          </mxGeometry>
        </mxCell>
        <mxCell id="bjQZ_ByGUtDVCCIVddDF-52" value="Получили&lt;br&gt;котировки" style="edgeLabel;html=1;align=center;verticalAlign=middle;resizable=0;points=[];fontSize=7;" parent="bjQZ_ByGUtDVCCIVddDF-49" vertex="1" connectable="0">
          <mxGeometry x="-0.1779" y="-1" relative="1" as="geometry">
            <mxPoint as="offset" />
          </mxGeometry>
        </mxCell>
        <mxCell id="bjQZ_ByGUtDVCCIVddDF-50" style="edgeStyle=orthogonalEdgeStyle;rounded=0;orthogonalLoop=1;jettySize=auto;html=1;exitX=0.5;exitY=0;exitDx=0;exitDy=0;entryX=0.806;entryY=1.017;entryDx=0;entryDy=0;entryPerimeter=0;" parent="1" source="bjQZ_ByGUtDVCCIVddDF-33" target="bjQZ_ByGUtDVCCIVddDF-12" edge="1">
          <mxGeometry relative="1" as="geometry" />
        </mxCell>
        <mxCell id="bjQZ_ByGUtDVCCIVddDF-51" value="Отправили&lt;br style=&quot;font-size: 7px;&quot;&gt;Ордер" style="edgeLabel;html=1;align=center;verticalAlign=middle;resizable=0;points=[];fontSize=7;" parent="bjQZ_ByGUtDVCCIVddDF-50" vertex="1" connectable="0">
          <mxGeometry x="0.6497" y="1" relative="1" as="geometry">
            <mxPoint x="1" y="15" as="offset" />
          </mxGeometry>
        </mxCell>
        <mxCell id="bjQZ_ByGUtDVCCIVddDF-53" value="&lt;h1&gt;Создание параметров индикаторов или стратегий&lt;/h1&gt;&lt;p&gt;&lt;font style=&quot;font-size: 11px&quot;&gt;В Yaml или JSON пишется стратегия с параметрами индикаторов, пример параметров можно взять из и-нета или будет создана специальная документация в &quot;Управлении сервисом&quot;. Далее документ отправляется в базу данных.&amp;nbsp;&lt;/font&gt;&lt;/p&gt;" style="text;html=1;strokeColor=none;fillColor=none;spacing=5;spacingTop=-20;whiteSpace=wrap;overflow=hidden;rounded=0;fontSize=7;" parent="1" vertex="1">
          <mxGeometry x="530" y="90" width="260" height="130" as="geometry" />
        </mxCell>
        <mxCell id="bjQZ_ByGUtDVCCIVddDF-56" style="edgeStyle=orthogonalEdgeStyle;rounded=0;orthogonalLoop=1;jettySize=auto;html=1;fontSize=11;" parent="1" source="bjQZ_ByGUtDVCCIVddDF-54" edge="1">
          <mxGeometry relative="1" as="geometry">
            <mxPoint x="410" y="630" as="targetPoint" />
            <Array as="points">
              <mxPoint x="410" y="630" />
            </Array>
          </mxGeometry>
        </mxCell>
        <mxCell id="bjQZ_ByGUtDVCCIVddDF-54" value="Стратегии" style="shape=cylinder3;whiteSpace=wrap;html=1;boundedLbl=1;backgroundOutline=1;size=15;" parent="1" vertex="1">
          <mxGeometry x="90" y="600" width="200" height="60" as="geometry" />
        </mxCell>
        <mxCell id="bjQZ_ByGUtDVCCIVddDF-19" value="Сделки" style="shape=cylinder3;whiteSpace=wrap;html=1;boundedLbl=1;backgroundOutline=1;size=15;" parent="1" vertex="1">
          <mxGeometry x="90" y="560" width="200" height="60" as="geometry" />
        </mxCell>
        <mxCell id="bjQZ_ByGUtDVCCIVddDF-18" value="Котировки" style="shape=cylinder3;whiteSpace=wrap;html=1;boundedLbl=1;backgroundOutline=1;size=15;" parent="1" vertex="1">
          <mxGeometry x="90" y="520" width="200" height="60" as="geometry" />
        </mxCell>
        <mxCell id="bjQZ_ByGUtDVCCIVddDF-55" style="edgeStyle=orthogonalEdgeStyle;rounded=0;orthogonalLoop=1;jettySize=auto;html=1;exitX=0.25;exitY=1;exitDx=0;exitDy=0;fontSize=11;" parent="1" source="bjQZ_ByGUtDVCCIVddDF-31" edge="1">
          <mxGeometry relative="1" as="geometry">
            <mxPoint x="290" y="620" as="targetPoint" />
            <Array as="points">
              <mxPoint x="587" y="530" />
              <mxPoint x="380" y="530" />
              <mxPoint x="380" y="620" />
              <mxPoint x="290" y="620" />
            </Array>
          </mxGeometry>
        </mxCell>
      </root>
    </mxGraphModel>
  </diagram>
</mxfile>
